<?xml version="1.0" encoding="UTF-8" standalone="no"?>
<svg
   width="16"
   height="16"
   fill="currentColor"
   class="bi bi-telephone-plus"
   viewBox="0 0 16 16"
   version="1.1"
   id="svg2"
   sodipodi:docname="cap23.svg"
   xml:space="preserve"
   inkscape:version="1.4.2 (f4327f4, 2025-05-13)"
   xmlns:inkscape="http://www.inkscape.org/namespaces/inkscape"
   xmlns:sodipodi="http://sodipodi.sourceforge.net/DTD/sodipodi-0.dtd"
   xmlns="http://www.w3.org/2000/svg"
   xmlns:svg="http://www.w3.org/2000/svg"><defs
     id="defs2" /><sodipodi:namedview
     id="namedview2"
     pagecolor="#ffffff"
     bordercolor="#000000"
     borderopacity="0.25"
     inkscape:showpageshadow="2"
     inkscape:pageopacity="0.0"
     inkscape:pagecheckerboard="0"
     inkscape:deskcolor="#d1d1d1"
     inkscape:zoom="50.9375"
     inkscape:cx="8"
     inkscape:cy="8"
     inkscape:window-width="1920"
     inkscape:window-height="1017"
     inkscape:window-x="-8"
     inkscape:window-y="-8"
     inkscape:window-maximized="1"
     inkscape:current-layer="svg2" /><path
     d="M3.654 1.328a.678.678 0 0 0-1.015-.063L1.605 2.3c-.483.484-.661 1.169-.45 1.77a17.6 17.6 0 0 0 4.168 6.608 17.6 17.6 0 0 0 6.608 4.168c.601.211 1.286.033 1.77-.45l1.034-1.034a.678.678 0 0 0-.063-1.015l-2.307-1.794a.68.68 0 0 0-.58-.122l-2.19.547a1.75 1.75 0 0 1-1.657-.459L5.482 8.062a1.75 1.75 0 0 1-.46-1.657l.548-2.19a.68.68 0 0 0-.122-.58zM1.884.511a1.745 1.745 0 0 1 2.612.163L6.29 2.98c.329.423.445.974.315 1.494l-.547 2.19a.68.68 0 0 0 .178.643l2.457 2.457a.68.68 0 0 0 .644.178l2.189-.547a1.75 1.75 0 0 1 1.494.315l2.306 1.794c.829.645.905 1.87.163 2.611l-1.034 1.034c-.74.74-1.846 1.065-2.877.702a18.6 18.6 0 0 1-7.01-4.42 18.6 18.6 0 0 1-4.42-7.009c-.362-1.03-.037-2.137.703-2.877z"
     id="path1" /><g
     style="fill:currentColor"
     id="g2"
     transform="matrix(0.41349693,0,0,0.41349693,8.598689,0.72638034)"><path
       d="m 6.95,0.435 c 0.58,-0.58 1.52,-0.58 2.1,0 l 6.515,6.516 c 0.58,0.58 0.58,1.519 0,2.098 L 9.05,15.565 c -0.58,0.58 -1.519,0.58 -2.098,0 L 0.435,9.05 a 1.48,1.48 0 0 1 0,-2.098 z m 1.4,0.7 a 0.495,0.495 0 0 0 -0.7,0 L 1.134,7.65 a 0.495,0.495 0 0 0 0,0.7 l 6.516,6.516 a 0.495,0.495 0 0 0 0.7,0 L 14.866,8.35 a 0.495,0.495 0 0 0 0,-0.7 L 8.35,1.134 Z"
       id="path1-8" /><path
       d="m 7.002,11 a 1,1 0 1 1 2,0 1,1 0 0 1 -2,0 M 7.1,4.995 a 0.905,0.905 0 1 1 1.8,0 L 8.55,8.502 a 0.552,0.552 0 0 1 -1.1,0 z"
       id="path2-8" /></g></svg>
